<svg width="16" height="16" fill="none" xmlns="http://www.w3.org/2000/svg"><path d="M14.666 11.28v2a1.333 1.333 0 01-1.453 1.333 13.193 13.193 0 01-5.753-2.046 13 13 0 01-4-4 13.193 13.193 0 01-2.047-5.78A1.333 1.333 0 012.74 1.333h2A1.333 1.333 0 016.073 2.48a8.56 8.56 0 00.467 1.873 1.333 1.333 0 01-.3 1.407l-.847.847a10.666 10.666 0 004 4l.847-.847a1.334 1.334 0 011.406-.3 8.559 8.559 0 001.874.467 1.334 1.334 0 011.146 1.353z" stroke="#57584E" stroke-linecap="round" stroke-linejoin="round"/></svg>