<svg width="32" height="34" viewBox="0 0 32 34" fill="none" xmlns="http://www.w3.org/2000/svg">
<path d="M10 12.9999H11.3333M11.3333 12.9999H22M11.3333 12.9999L11.3333 22.3333C11.3333 22.6869 11.4738 23.026 11.7239 23.2761C11.9739 23.5261 12.313 23.6666 12.6667 23.6666H19.3333C19.687 23.6666 20.0261 23.5261 20.2761 23.2761C20.5262 23.026 20.6667 22.6869 20.6667 22.3333V12.9999L11.3333 12.9999ZM13.3333 12.9999V11.6666C13.3333 11.313 13.4738 10.9738 13.7239 10.7238C13.9739 10.4737 14.313 10.3333 14.6667 10.3333H17.3333C17.687 10.3333 18.0261 10.4737 18.2761 10.7238C18.5262 10.9738 18.6667 11.313 18.6667 11.6666V12.9999M14.6667 16.3333V20.3333M17.3333 16.3333V20.3333" stroke="#C1C1C1" stroke-width="1.5" stroke-linecap="round" stroke-linejoin="round"/>
</svg>
